<svg xmlns="http://www.w3.org/2000/svg" xmlns:xlink="http://www.w3.org/1999/xlink" width="576" height="576" version="1.1" viewBox="0 0 432 432"><metadata><rdf:RDF xmlns:cc="http://creativecommons.org/ns#" xmlns:dc="http://purl.org/dc/elements/1.1/" xmlns:rdf="http://www.w3.org/1999/02/22-rdf-syntax-ns#"><cc:Work><dc:type rdf:resource="http://purl.org/dc/dcmitype/StillImage"/><dc:date>2020-10-24T14:32:12.687957</dc:date><dc:format>image/svg+xml</dc:format><dc:creator><cc:Agent><dc:title>Matplotlib v3.3.2, https://matplotlib.org/</dc:title></cc:Agent></dc:creator></cc:Work></rdf:RDF></metadata><defs><style type="text/css">*{stroke-linecap:butt;stroke-linejoin:round}</style></defs><g id="figure_1"><g id="patch_1"><path d="M 0 432 L 432 432 L 432 0 L 0 0 z" style="fill:none"/></g><g id="axes_1"><g id="patch_2"><path d="M 349.25472 217.52928 C 349.25472 195.581355 343.716279 173.98423 333.154081 154.744911 C 322.591883 135.505592 307.343565 119.239095 288.826142 107.457054 C 270.30872 95.675013 249.114133 88.75406 227.211978 87.337354 C 205.309824 85.920647 183.40024 90.053476 163.519269 99.351778 C 143.638298 108.65008 126.421467 122.81662 113.468725 140.534913 C 100.515982 158.253205 92.241383 178.956855 89.413879 200.721888 C 86.586376 222.486921 89.296355 244.617581 97.291978 265.057283 C 105.287602 285.496986 118.313278 303.592341 135.15854 317.661761 L 218.79072 217.52928 L 349.25472 217.52928 z" style="fill:#4c0000;opacity:.5;stroke:#4c0000;stroke-linejoin:miter"/></g><g id="patch_3"><path d="M 135.15854 317.661761 C 154.197869 333.5637 177.383442 343.710342 201.983334 346.906121 C 226.583226 350.101901 251.591749 346.21617 274.062182 335.706777 C 296.532615 325.197384 315.546326 308.493975 328.862956 287.564687 C 342.179585 266.635399 349.254725 242.335862 349.25472 217.529256 L 218.79072 217.52928 L 135.15854 317.661761 z" style="fill:#002600;opacity:.5;stroke:#002600;stroke-linejoin:miter"/></g><g id="patch_4"><path d="M 351.864 214.92 C 351.864 192.972075 346.325559 171.37495 335.763361 152.135631 C 325.201163 132.896312 309.952845 116.629815 291.435422 104.847774 C 272.918 93.065733 251.723413 86.14478 229.821258 84.728074 C 207.919104 83.311367 186.00952 87.444196 166.128549 96.742498 C 146.247578 106.0408 129.030747 120.20734 116.078005 137.925633 C 103.125262 155.643925 94.850663 176.347575 92.023159 198.112608 C 89.195656 219.877641 91.905635 242.008301 99.901258 262.448003 C 107.896882 282.887706 120.922558 300.983061 137.76782 315.052481 L 221.4 214.92 L 351.864 214.92 z" style="fill:red"/></g><g id="patch_5"><path d="M 137.76782 315.052481 C 156.807149 330.95442 179.992722 341.101062 204.592614 344.296841 C 229.192506 347.492621 254.201029 343.60689 276.671462 333.097497 C 299.141895 322.588104 318.155606 305.884695 331.472236 284.955407 C 344.788865 264.026119 351.864005 239.726582 351.864 214.919976 L 221.4 214.92 L 137.76782 315.052481 z" style="fill:green"/></g><g id="text_1"><g transform="translate(92.888904 87.684123)scale(0.1 -0.1)"><defs><path id="DejaVuSans-99" d="M 48.78125 52.59375 L 48.78125 44.1875 Q 44.96875 46.296875 41.140625 47.34375 Q 37.3125 48.390625 33.40625 48.390625 Q 24.65625 48.390625 19.8125 42.84375 Q 14.984375 37.3125 14.984375 27.296875 Q 14.984375 17.28125 19.8125 11.734375 Q 24.65625 6.203125 33.40625 6.203125 Q 37.3125 6.203125 41.140625 7.25 Q 44.96875 8.296875 48.78125 10.40625 L 48.78125 2.09375 Q 45.015625 0.34375 40.984375 -0.53125 Q 36.96875 -1.421875 32.421875 -1.421875 Q 20.0625 -1.421875 12.78125 6.34375 Q 5.515625 14.109375 5.515625 27.296875 Q 5.515625 40.671875 12.859375 48.328125 Q 20.21875 56 33.015625 56 Q 37.15625 56 41.109375 55.140625 Q 45.0625 54.296875 48.78125 52.59375 z"/><path id="DejaVuSans-111" d="M 30.609375 48.390625 Q 23.390625 48.390625 19.1875 42.75 Q 14.984375 37.109375 14.984375 27.296875 Q 14.984375 17.484375 19.15625 11.84375 Q 23.34375 6.203125 30.609375 6.203125 Q 37.796875 6.203125 41.984375 11.859375 Q 46.1875 17.53125 46.1875 27.296875 Q 46.1875 37.015625 41.984375 42.703125 Q 37.796875 48.390625 30.609375 48.390625 z M 30.609375 56 Q 42.328125 56 49.015625 48.375 Q 55.71875 40.765625 55.71875 27.296875 Q 55.71875 13.875 49.015625 6.21875 Q 42.328125 -1.421875 30.609375 -1.421875 Q 18.84375 -1.421875 12.171875 6.21875 Q 5.515625 13.875 5.515625 27.296875 Q 5.515625 40.765625 12.171875 48.375 Q 18.84375 56 30.609375 56 z"/><path id="DejaVuSans-118" d="M 2.984375 54.6875 L 12.5 54.6875 L 29.59375 8.796875 L 46.6875 54.6875 L 56.203125 54.6875 L 35.6875 0 L 23.484375 0 z"/><path id="DejaVuSans-105" d="M 9.421875 54.6875 L 18.40625 54.6875 L 18.40625 0 L 9.421875 0 z M 9.421875 75.984375 L 18.40625 75.984375 L 18.40625 64.59375 L 9.421875 64.59375 z"/><path id="DejaVuSans-100" d="M 45.40625 46.390625 L 45.40625 75.984375 L 54.390625 75.984375 L 54.390625 0 L 45.40625 0 L 45.40625 8.203125 Q 42.578125 3.328125 38.25 0.953125 Q 33.9375 -1.421875 27.875 -1.421875 Q 17.96875 -1.421875 11.734375 6.484375 Q 5.515625 14.40625 5.515625 27.296875 Q 5.515625 40.1875 11.734375 48.09375 Q 17.96875 56 27.875 56 Q 33.9375 56 38.25 53.625 Q 42.578125 51.265625 45.40625 46.390625 z M 14.796875 27.296875 Q 14.796875 17.390625 18.875 11.75 Q 22.953125 6.109375 30.078125 6.109375 Q 37.203125 6.109375 41.296875 11.75 Q 45.40625 17.390625 45.40625 27.296875 Q 45.40625 37.203125 41.296875 42.84375 Q 37.203125 48.484375 30.078125 48.484375 Q 22.953125 48.484375 18.875 42.84375 Q 14.796875 37.203125 14.796875 27.296875 z"/><path id="DejaVuSans-45" d="M 4.890625 31.390625 L 31.203125 31.390625 L 31.203125 23.390625 L 4.890625 23.390625 z"/><path id="DejaVuSans-49" d="M 12.40625 8.296875 L 28.515625 8.296875 L 28.515625 63.921875 L 10.984375 60.40625 L 10.984375 69.390625 L 28.421875 72.90625 L 38.28125 72.90625 L 38.28125 8.296875 L 54.390625 8.296875 L 54.390625 0 L 12.40625 0 z"/><path id="DejaVuSans-57" d="M 10.984375 1.515625 L 10.984375 10.5 Q 14.703125 8.734375 18.5 7.8125 Q 22.3125 6.890625 25.984375 6.890625 Q 35.75 6.890625 40.890625 13.453125 Q 46.046875 20.015625 46.78125 33.40625 Q 43.953125 29.203125 39.59375 26.953125 Q 35.25 24.703125 29.984375 24.703125 Q 19.046875 24.703125 12.671875 31.3125 Q 6.296875 37.9375 6.296875 49.421875 Q 6.296875 60.640625 12.9375 67.421875 Q 19.578125 74.21875 30.609375 74.21875 Q 43.265625 74.21875 49.921875 64.515625 Q 56.59375 54.828125 56.59375 36.375 Q 56.59375 19.140625 48.40625 8.859375 Q 40.234375 -1.421875 26.421875 -1.421875 Q 22.703125 -1.421875 18.890625 -0.6875 Q 15.09375 0.046875 10.984375 1.515625 z M 30.609375 32.421875 Q 37.25 32.421875 41.125 36.953125 Q 45.015625 41.5 45.015625 49.421875 Q 45.015625 57.28125 41.125 61.84375 Q 37.25 66.40625 30.609375 66.40625 Q 23.96875 66.40625 20.09375 61.84375 Q 16.21875 57.28125 16.21875 49.421875 Q 16.21875 41.5 20.09375 36.953125 Q 23.96875 32.421875 30.609375 32.421875 z"/><path id="DejaVuSans-32"/><path id="DejaVuSans-43" d="M 46 62.703125 L 46 35.5 L 73.1875 35.5 L 73.1875 27.203125 L 46 27.203125 L 46 0 L 37.796875 0 L 37.796875 27.203125 L 10.59375 27.203125 L 10.59375 35.5 L 37.796875 35.5 L 37.796875 62.703125 z"/><path id="DejaVuSans-86" d="M 28.609375 0 L 0.78125 72.90625 L 11.078125 72.90625 L 34.1875 11.53125 L 57.328125 72.90625 L 67.578125 72.90625 L 39.796875 0 z"/><path id="DejaVuSans-69" d="M 9.8125 72.90625 L 55.90625 72.90625 L 55.90625 64.59375 L 19.671875 64.59375 L 19.671875 43.015625 L 54.390625 43.015625 L 54.390625 34.71875 L 19.671875 34.71875 L 19.671875 8.296875 L 56.78125 8.296875 L 56.78125 0 L 9.8125 0 z"/></defs><use xlink:href="#DejaVuSans-99"/><use x="54.98" xlink:href="#DejaVuSans-111"/><use x="116.162" xlink:href="#DejaVuSans-118"/><use x="175.342" xlink:href="#DejaVuSans-105"/><use x="203.125" xlink:href="#DejaVuSans-100"/><use x="266.602" xlink:href="#DejaVuSans-45"/><use x="302.686" xlink:href="#DejaVuSans-49"/><use x="366.309" xlink:href="#DejaVuSans-57"/><use x="429.932" xlink:href="#DejaVuSans-32"/><use x="461.719" xlink:href="#DejaVuSans-43"/><use x="545.508" xlink:href="#DejaVuSans-86"/><use x="613.916" xlink:href="#DejaVuSans-69"/></g></g><g id="text_2"><g transform="translate(172.353536 146.772874)scale(0.1 -0.1)"><defs><path id="DejaVuSans-54" d="M 33.015625 40.375 Q 26.375 40.375 22.484375 35.828125 Q 18.609375 31.296875 18.609375 23.390625 Q 18.609375 15.53125 22.484375 10.953125 Q 26.375 6.390625 33.015625 6.390625 Q 39.65625 6.390625 43.53125 10.953125 Q 47.40625 15.53125 47.40625 23.390625 Q 47.40625 31.296875 43.53125 35.828125 Q 39.65625 40.375 33.015625 40.375 z M 52.59375 71.296875 L 52.59375 62.3125 Q 48.875 64.0625 45.09375 64.984375 Q 41.3125 65.921875 37.59375 65.921875 Q 27.828125 65.921875 22.671875 59.328125 Q 17.53125 52.734375 16.796875 39.40625 Q 19.671875 43.65625 24.015625 45.921875 Q 28.375 48.1875 33.59375 48.1875 Q 44.578125 48.1875 50.953125 41.515625 Q 57.328125 34.859375 57.328125 23.390625 Q 57.328125 12.15625 50.6875 5.359375 Q 44.046875 -1.421875 33.015625 -1.421875 Q 20.359375 -1.421875 13.671875 8.265625 Q 6.984375 17.96875 6.984375 36.375 Q 6.984375 53.65625 15.1875 63.9375 Q 23.390625 74.21875 37.203125 74.21875 Q 40.921875 74.21875 44.703125 73.484375 Q 48.484375 72.75 52.59375 71.296875 z"/><path id="DejaVuSans-51" d="M 40.578125 39.3125 Q 47.65625 37.796875 51.625 33 Q 55.609375 28.21875 55.609375 21.1875 Q 55.609375 10.40625 48.1875 4.484375 Q 40.765625 -1.421875 27.09375 -1.421875 Q 22.515625 -1.421875 17.65625 -0.515625 Q 12.796875 0.390625 7.625 2.203125 L 7.625 11.71875 Q 11.71875 9.328125 16.59375 8.109375 Q 21.484375 6.890625 26.8125 6.890625 Q 36.078125 6.890625 40.9375 10.546875 Q 45.796875 14.203125 45.796875 21.1875 Q 45.796875 27.640625 41.28125 31.265625 Q 36.765625 34.90625 28.71875 34.90625 L 20.21875 34.90625 L 20.21875 43.015625 L 29.109375 43.015625 Q 36.375 43.015625 40.234375 45.921875 Q 44.09375 48.828125 44.09375 54.296875 Q 44.09375 59.90625 40.109375 62.90625 Q 36.140625 65.921875 28.71875 65.921875 Q 24.65625 65.921875 20.015625 65.03125 Q 15.375 64.15625 9.8125 62.3125 L 9.8125 71.09375 Q 15.4375 72.65625 20.34375 73.4375 Q 25.25 74.21875 29.59375 74.21875 Q 40.828125 74.21875 47.359375 69.109375 Q 53.90625 64.015625 53.90625 55.328125 Q 53.90625 49.265625 50.4375 45.09375 Q 46.96875 40.921875 40.578125 39.3125 z"/><path id="DejaVuSans-46" d="M 10.6875 12.40625 L 21 12.40625 L 21 0 L 10.6875 0 z"/><path id="DejaVuSans-37" d="M 72.703125 32.078125 Q 68.453125 32.078125 66.03125 28.46875 Q 63.625 24.859375 63.625 18.40625 Q 63.625 12.0625 66.03125 8.421875 Q 68.453125 4.78125 72.703125 4.78125 Q 76.859375 4.78125 79.265625 8.421875 Q 81.6875 12.0625 81.6875 18.40625 Q 81.6875 24.8125 79.265625 28.4375 Q 76.859375 32.078125 72.703125 32.078125 z M 72.703125 38.28125 Q 80.421875 38.28125 84.953125 32.90625 Q 89.5 27.546875 89.5 18.40625 Q 89.5 9.28125 84.9375 3.921875 Q 80.375 -1.421875 72.703125 -1.421875 Q 64.890625 -1.421875 60.34375 3.921875 Q 55.8125 9.28125 55.8125 18.40625 Q 55.8125 27.59375 60.375 32.9375 Q 64.9375 38.28125 72.703125 38.28125 z M 22.3125 68.015625 Q 18.109375 68.015625 15.6875 64.375 Q 13.28125 60.75 13.28125 54.390625 Q 13.28125 47.953125 15.671875 44.328125 Q 18.0625 40.71875 22.3125 40.71875 Q 26.5625 40.71875 28.96875 44.328125 Q 31.390625 47.953125 31.390625 54.390625 Q 31.390625 60.6875 28.953125 64.34375 Q 26.515625 68.015625 22.3125 68.015625 z M 66.40625 74.21875 L 74.21875 74.21875 L 28.609375 -1.421875 L 20.796875 -1.421875 z M 22.3125 74.21875 Q 30.03125 74.21875 34.609375 68.875 Q 39.203125 63.53125 39.203125 54.390625 Q 39.203125 45.171875 34.640625 39.84375 Q 30.078125 34.515625 22.3125 34.515625 Q 14.546875 34.515625 10.03125 39.859375 Q 5.515625 45.21875 5.515625 54.390625 Q 5.515625 63.484375 10.046875 68.84375 Q 14.59375 74.21875 22.3125 74.21875 z"/></defs><use xlink:href="#DejaVuSans-54"/><use x="63.623" xlink:href="#DejaVuSans-51"/><use x="127.246" xlink:href="#DejaVuSans-46"/><use x="159.033" xlink:href="#DejaVuSans-57"/><use x="222.656" xlink:href="#DejaVuSans-37"/></g></g><g id="text_3"><g transform="translate(282.198608 347.674622)scale(0.1 -0.1)"><defs><path id="DejaVuSans-67" d="M 64.40625 67.28125 L 64.40625 56.890625 Q 59.421875 61.53125 53.78125 63.8125 Q 48.140625 66.109375 41.796875 66.109375 Q 29.296875 66.109375 22.65625 58.46875 Q 16.015625 50.828125 16.015625 36.375 Q 16.015625 21.96875 22.65625 14.328125 Q 29.296875 6.6875 41.796875 6.6875 Q 48.140625 6.6875 53.78125 8.984375 Q 59.421875 11.28125 64.40625 15.921875 L 64.40625 5.609375 Q 59.234375 2.09375 53.4375 0.328125 Q 47.65625 -1.421875 41.21875 -1.421875 Q 24.65625 -1.421875 15.125 8.703125 Q 5.609375 18.84375 5.609375 36.375 Q 5.609375 53.953125 15.125 64.078125 Q 24.65625 74.21875 41.21875 74.21875 Q 47.75 74.21875 53.53125 72.484375 Q 59.328125 70.75 64.40625 67.28125 z"/></defs><use xlink:href="#DejaVuSans-67"/><use x="69.824" xlink:href="#DejaVuSans-111"/><use x="131.006" xlink:href="#DejaVuSans-118"/><use x="190.186" xlink:href="#DejaVuSans-105"/><use x="217.969" xlink:href="#DejaVuSans-100"/><use x="281.445" xlink:href="#DejaVuSans-45"/><use x="317.529" xlink:href="#DejaVuSans-49"/><use x="381.152" xlink:href="#DejaVuSans-57"/><use x="444.775" xlink:href="#DejaVuSans-32"/><use x="476.563" xlink:href="#DejaVuSans-45"/><use x="506.771" xlink:href="#DejaVuSans-86"/><use x="575.18" xlink:href="#DejaVuSans-69"/></g></g><g id="text_4"><g transform="translate(238.679283 288.585873)scale(0.1 -0.1)"><use xlink:href="#DejaVuSans-51"/><use x="63.623" xlink:href="#DejaVuSans-54"/><use x="127.246" xlink:href="#DejaVuSans-46"/><use x="159.033" xlink:href="#DejaVuSans-49"/><use x="222.656" xlink:href="#DejaVuSans-37"/></g></g></g></g></svg>